<?xml version="1.0" encoding="UTF-8"?>
<svg width="61px" height="61px" viewBox="0 0 61 61" version="1.1" xmlns="http://www.w3.org/2000/svg" xmlns:xlink="http://www.w3.org/1999/xlink">
    <!-- Generator: Sketch 49.3 (51167) - http://www.bohemiancoding.com/sketch -->
    <title>conference</title>
    <desc>Created with Sketch.</desc>
    <defs>
        <polygon id="path-1" points="0.0071484375 0 60.9876094 0 60.9876094 61 0.0071484375 61"></polygon>
        <linearGradient x1="100%" y1="0%" x2="2.33509691%" y2="100%" id="linearGradient-3">
            <stop stop-color="#2F80ED" offset="0%"></stop>
            <stop stop-color="#56CCF2" offset="100%"></stop>
        </linearGradient>
    </defs>
    <g id="Symbols" stroke="none" stroke-width="1" fill="none" fill-rule="evenodd">
        <g id="Startseite-Messen/Tagungen/Kongresse" transform="translate(-200.000000, -31.000000)">
            <g id="conference" transform="translate(200.000000, 31.000000)">
                <g>
                    <mask id="mask-2" fill="white">
                        <use xlink:href="#path-1"></use>
                    </mask>
                    <g id="Clip-2"></g>
                    <path d="M46.4063457,42.7488477 L46.4063457,38.5743984 C46.4063457,36.5003984 48.0937344,34.8128906 50.1677344,34.8128906 L50.2846113,34.8128906 C52.3587305,34.8128906 54.0461191,36.5002793 54.0461191,38.5743984 L54.0461191,42.7488477 C54.0461191,44.7790039 52.4292617,46.4375605 50.415666,46.5070195 C50.3565723,46.5052324 50.2975977,46.503207 50.2385039,46.502373 C50.2302832,46.5022539 50.2220625,46.5022539 50.2139609,46.502373 C50.154748,46.503207 50.0957734,46.5052324 50.0366797,46.5070195 C48.023084,46.4375605 46.4063457,44.7790039 46.4063457,42.7488477 Z M33.9684219,47.1204746 C35.2670547,46.1033711 36.1040176,44.5226133 36.1040176,42.7488477 L36.1040176,38.5743984 C36.1040176,35.5130801 33.613502,33.0225645 30.5521836,33.0225645 L30.4351875,33.0225645 C27.3738691,33.0225645 24.8833535,35.5130801 24.8833535,38.5743984 L24.8833535,42.7488477 C24.8833535,44.5224941 25.7203164,46.1033711 27.0188301,47.1204746 C24.7827988,47.9063262 22.8579629,49.3897461 21.549084,51.2752656 L21.549084,30.5629063 L24.618623,30.5629063 C25.1130566,30.5629063 25.5137266,30.1621172 25.5137266,29.6676836 C25.5137266,29.1733691 25.1130566,28.7724609 24.618623,28.7724609 L19.1301719,28.7724609 L19.1301719,25.9513301 L41.7889316,25.9513301 L41.7889316,28.7724609 L27.6027383,28.7724609 C27.1083047,28.7724609 26.7076348,29.1733691 26.7076348,29.6676836 C26.7076348,30.1621172 27.1083047,30.5629063 27.6027383,30.5629063 L39.4648555,30.5629063 L39.4648555,51.3138672 C38.1553809,49.4101191 36.2198223,47.9116875 33.9684219,47.1204746 Z M26.6737988,42.7488477 L26.6737988,38.5743984 C26.6737988,36.5003984 28.3611875,34.8128906 30.4353066,34.8128906 L30.5523027,34.8128906 C32.6264219,34.8128906 34.3138105,36.5002793 34.3138105,38.5743984 L34.3138105,42.7488477 C34.3138105,44.7790039 32.6969531,46.4375605 30.6833574,46.5070195 C30.6242637,46.5052324 30.5652891,46.503207 30.5060762,46.502373 C30.4979746,46.5022539 30.4897539,46.5022539 30.4816523,46.502373 C30.4224395,46.503207 30.3634648,46.5052324 30.3043711,46.5070195 C28.2906563,46.4375605 26.6737988,44.7790039 26.6737988,42.7488477 Z M22.2547539,22.1344219 C22.2547539,20.0843691 23.1323438,18.1216465 24.7254922,16.6077266 C25.595457,15.781248 26.6318613,15.1467051 27.7411797,14.741627 L28.4732988,16.4669023 L27.3361016,20.9490918 C27.2549668,21.268627 27.3562363,21.6069863 27.5994023,21.8296602 L29.8552109,23.894248 C30.0262969,24.050918 30.2428945,24.1290742 30.4596113,24.1290742 C30.6763281,24.1290742 30.8930449,24.0507988 31.0640117,23.894248 L33.3198203,21.8296602 C33.5631055,21.6069863 33.664375,21.2687461 33.5831211,20.9490918 L32.446043,16.4669023 L33.178043,14.741627 C34.2873613,15.1467051 35.3236465,15.781248 36.1937305,16.6077266 C37.786998,18.1216465 38.6644688,20.0843691 38.6644688,22.1344219 L38.6644688,24.1608848 L22.2547539,24.1608848 L22.2547539,22.1344219 Z M27.0059629,7.96598047 C29.0516074,7.75915234 30.3877695,6.86714648 31.1738594,6.10929297 C31.7185703,6.83176172 32.6022363,7.64882812 33.913498,7.91772852 L33.913498,8.98653906 C33.913498,10.891002 32.3643125,12.4403066 30.4596113,12.4403066 C28.5552676,12.4403066 27.0058437,10.891002 27.0058437,8.98653906 L27.0058437,7.96598047 L27.0059629,7.96598047 Z M27.0059629,5.24421289 C27.0059629,3.33963086 28.5552676,1.79032617 30.4597305,1.79032617 C32.3641934,1.79032617 33.913498,3.33963086 33.913498,5.24421289 L33.913498,6.05651367 C32.6819414,5.59246094 32.1585566,4.29430469 32.1338945,4.23139844 C32.0096309,3.90364258 31.7077285,3.67501172 31.3579316,3.65189844 C31.0082539,3.62938086 30.6791875,3.80833008 30.512748,4.11654687 C30.4692617,4.19386914 29.514707,5.83574609 27.0059629,6.16350195 L27.0059629,5.24421289 Z M30.9116309,15.4995996 L30.0077109,15.4995996 L29.5012441,14.3059297 C29.5590273,14.2980664 29.6165723,14.2886543 29.6744746,14.2819824 C29.6761426,14.2817441 29.6779297,14.2815059 29.6795977,14.2813867 C29.8017168,14.2674473 29.9240742,14.2568438 30.0465508,14.2485039 C30.0644219,14.2473125 30.082293,14.2463594 30.1001641,14.2452871 C30.2200195,14.2380195 30.339875,14.2327773 30.4596113,14.2308711 C30.5794668,14.2326582 30.6993223,14.2380195 30.8191777,14.2452871 C30.8370488,14.2463594 30.8548008,14.2473125 30.872791,14.2485039 C30.9953867,14.2567246 31.1177441,14.2674473 31.2398633,14.2813867 C31.241293,14.2815059 31.2428418,14.2817441 31.2442715,14.2819824 C31.3024121,14.2885352 31.3601953,14.2980664 31.4180977,14.3059297 L30.9116309,15.4995996 Z M30.1116016,17.2900449 L30.8078594,17.2900449 L31.7161875,20.8705781 L30.4596113,22.0206426 L29.2032734,20.8705781 L30.1116016,17.2900449 Z M6.94149023,42.7488477 L6.94149023,38.5743984 C6.94149023,36.5003984 8.62887891,34.8128906 10.7028789,34.8128906 L10.8197559,34.8128906 C12.893875,34.8128906 14.5812637,36.5002793 14.5812637,38.5743984 L14.5812637,42.7488477 C14.5812637,44.7790039 12.9644062,46.4375605 10.9508105,46.5070195 C10.8918359,46.5052324 10.8328613,46.503207 10.7735293,46.502373 C10.7654277,46.5022539 10.7570879,46.5022539 10.7489863,46.502373 C10.6897734,46.503207 10.6307988,46.5052324 10.5718242,46.5070195 C8.55834766,46.4375605 6.94149023,44.7790039 6.94149023,42.7488477 Z M53.7008496,47.1204746 C54.9994824,46.1033711 55.8365645,44.5226133 55.8365645,42.7488477 L55.8365645,38.5743984 C55.8365645,35.5130801 53.3459297,33.0225645 50.2846113,33.0225645 L50.1677344,33.0225645 C47.1065352,33.0225645 44.6159004,35.5130801 44.6159004,38.5743984 L44.6159004,42.7488477 C44.6159004,44.5224941 45.4529824,46.1033711 46.7514961,47.1204746 C44.5000957,47.9116875 42.564418,49.4102383 41.2550625,51.3139863 L41.2550625,30.5629063 L42.6841543,30.5629063 C43.178707,30.5629063 43.579377,30.1621172 43.579377,29.6676836 L43.579377,25.0561074 C43.579377,24.561793 43.178707,24.1610039 42.6841543,24.1610039 L40.4549141,24.1610039 L40.4549141,22.1344219 C40.4549141,18.0557617 37.6204395,14.4381758 33.7742227,13.0469707 C34.9510938,12.0844336 35.7038242,10.6218633 35.7038242,8.98653906 L35.7038242,5.24421289 C35.7038242,5.15378516 35.7015605,5.06395312 35.6970332,4.97459766 C35.5563281,2.20779492 33.261084,0 30.4597305,0 L30.4596113,0 C27.5679492,0 25.2155176,2.35243164 25.2155176,5.24421289 L25.2155176,8.98653906 C25.2155176,10.6218633 25.968248,12.0844336 27.145,13.0469707 C23.2987832,14.4381758 20.4643086,18.0557617 20.4643086,22.1344219 L20.4643086,24.1610039 L18.2349492,24.1610039 C17.7405156,24.1610039 17.3398457,24.561793 17.3398457,25.0561074 L17.3398457,29.6676836 C17.3398457,30.1621172 17.7405156,30.5629063 18.2349492,30.5629063 L19.758877,30.5629063 L19.758877,51.3525879 C18.4491641,49.430373 16.5025254,47.9170488 14.2359941,47.1204746 C15.534627,46.1033711 16.371709,44.5226133 16.371709,42.7488477 L16.371709,38.5743984 C16.371709,35.5130801 13.8810742,33.0225645 10.8197559,33.0225645 L10.7028789,33.0225645 C7.64167969,33.0225645 5.15104492,35.5130801 5.15104492,38.5743984 L5.15104492,42.7488477 C5.15104492,44.5226133 5.98800781,46.1033711 7.28664063,47.1204746 C3.09765625,48.5926953 0,52.5134941 0,56.9370664 L0,60.1047773 C0,60.5992109 0.400669922,61 0.895222656,61 L5.29627734,61 C5.79071094,61 6.1915,60.5992109 6.1915,60.1047773 C6.1915,59.6104629 5.79071094,59.2095547 5.29627734,59.2095547 L1.79044531,59.2095547 L1.79044531,56.9370664 C1.79044531,54.6935293 2.75000391,52.5461387 4.49267383,50.8905605 C6.15873633,49.3075391 8.38273438,48.3696641 10.6172168,48.2985371 C10.6459297,48.2990137 10.674166,48.3006816 10.7028789,48.3006816 L10.8197559,48.3006816 C10.8485879,48.3006816 10.8768242,48.2988945 10.905418,48.2985371 C13.1399004,48.3696641 15.3640176,49.3075391 17.0300801,50.8905605 C18.77275,52.5461387 19.7323086,54.6935293 19.7323086,56.9370664 L19.7323086,59.2095547 L8.28027344,59.2095547 C7.78583984,59.2095547 7.38516992,59.6104629 7.38516992,60.1047773 C7.38516992,60.5992109 7.78583984,61 8.28027344,61 L25.3058262,61 C25.8003789,61 26.2010488,60.5992109 26.2010488,60.1047773 C26.2010488,59.6104629 25.8003789,59.2095547 25.3058262,59.2095547 L21.5493223,59.2095547 L21.5493223,56.3261133 C21.7071836,54.3062031 22.6413652,52.3950684 24.2251016,50.8905605 C25.8910449,49.3075391 28.115043,48.3696641 30.3496445,48.2985371 C30.3782383,48.2990137 30.4065938,48.3006816 30.4353066,48.3006816 L30.5523027,48.3006816 C30.5810156,48.3006816 30.6093711,48.2988945 30.6378457,48.2985371 C32.8724473,48.3696641 35.0965645,49.3075391 36.7625078,50.8905605 C38.5051777,52.5461387 39.4648555,54.6935293 39.4648555,56.9370664 L39.4648555,59.2095547 L28.2898223,59.2095547 C27.7952695,59.2095547 27.3945996,59.6104629 27.3945996,60.1047773 C27.3945996,60.5992109 27.7952695,61 28.2898223,61 L44.8031895,61 C45.2977422,61 45.6984121,60.5992109 45.6984121,60.1047773 C45.6984121,59.6104629 45.2977422,59.2095547 44.8031895,59.2095547 L41.2550625,59.2095547 L41.2550625,56.9370664 C41.2550625,54.6935293 42.2147402,52.5461387 43.9574102,50.8905605 C45.6234727,49.3075391 47.8474707,48.3696641 50.0819531,48.2985371 C50.110666,48.2990137 50.1389023,48.3006816 50.1676152,48.3006816 L50.2844922,48.3006816 C50.3133242,48.3006816 50.3415605,48.2988945 50.3701543,48.2985371 C52.6047559,48.3696641 54.8287539,49.3075391 56.4948164,50.8905605 C58.2374863,52.5461387 59.1970449,54.6935293 59.1970449,56.9370664 L59.1970449,59.2095547 L47.7868281,59.2095547 C47.2922754,59.2095547 46.8916055,59.6104629 46.8916055,60.1047773 C46.8916055,60.5992109 47.2922754,61 47.7868281,61 L60.0923867,61 C60.5869395,61 60.9876094,60.5992109 60.9876094,60.1047773 L60.9876094,56.9370664 C60.9876094,52.5136133 57.8899531,48.5925762 53.7008496,47.1204746 Z" id="Fill-1" fill="url(#linearGradient-3)" mask="url(#mask-2)"></path>
                </g>
            </g>
        </g>
    </g>
</svg>