<?xml version="1.0" standalone="no"?>
<!DOCTYPE svg PUBLIC "-//W3C//DTD SVG 20010904//EN"
 "http://www.w3.org/TR/2001/REC-SVG-20010904/DTD/svg10.dtd">
<svg version="1.0" xmlns="http://www.w3.org/2000/svg"
 width="2133.000000pt" height="2133.000000pt" viewBox="0 0 2133.000000 2133.000000"
 preserveAspectRatio="xMidYMid meet">
<metadata>
Created by potrace 1.11, written by Peter Selinger 2001-2013
</metadata>
<g transform="translate(0.000000,2133.000000) scale(0.100000,-0.100000)"
fill="#000000" stroke="none">
<path d="M2750 16440 c-197 -104 -266 -235 -215 -408 42 -140 250 -262 423
-250 131 10 238 91 308 233 l37 76 -11 75 c-32 202 -174 315 -397 314 -62 -1
-79 -5 -145 -40z"/>
<path d="M7580 14888 c-577 -36 -1113 -331 -1506 -828 -121 -152 -211 -281
-294 -420 -173 -290 -231 -356 -410 -471 -538 -342 -1393 -1015 -1690 -1329
-166 -175 -324 -320 -349 -320 -13 0 -21 14 -31 58 -7 31 -48 192 -92 357 -44
165 -108 422 -143 570 -162 695 -303 1102 -428 1231 l-53 54 -106 0 c-100 0
-107 -1 -144 -29 -86 -63 -128 -133 -140 -232 -14 -117 12 -255 131 -709 211
-804 349 -1372 421 -1725 54 -267 60 -244 -132 -511 -457 -638 -992 -1506
-1206 -1959 -219 -463 -440 -1036 -608 -1580 -34 -110 -99 -315 -145 -455
-197 -600 -322 -1134 -431 -1846 -45 -299 -53 -368 -59 -524 -3 -69 -9 -199
-15 -290 -13 -216 -13 -536 1 -697 66 -813 330 -1614 741 -2250 117 -182 404
-417 603 -495 66 -26 98 -32 185 -36 97 -4 114 -2 215 28 354 105 704 280 931
464 67 55 210 243 393 516 397 592 608 1070 661 1494 7 54 28 139 56 220 81
235 125 431 140 611 3 44 21 172 39 285 127 775 150 1149 126 2075 -21 814
-59 1353 -127 1809 -14 93 -23 175 -20 182 6 15 -80 541 -139 854 -98 523
-202 1002 -310 1428 -62 245 -63 255 -49 294 52 149 275 422 591 725 340 327
626 578 871 766 105 80 331 237 342 237 4 0 10 -37 13 -82 19 -241 131 -491
322 -719 118 -142 317 -270 485 -314 100 -26 353 -32 482 -10 253 41 516 163
743 343 93 74 290 266 379 372 177 207 224 280 381 597 83 165 155 300 160
299 6 -1 38 -56 73 -121 76 -142 159 -276 238 -382 79 -106 300 -325 402 -397
238 -169 506 -274 822 -323 136 -21 576 -24 700 -5 96 15 352 97 545 174 361
146 712 353 955 563 41 36 127 107 190 159 63 51 145 125 181 163 l65 70 101
25 100 25 84 -18 c145 -30 405 -155 621 -299 173 -115 249 -176 387 -313 204
-201 359 -414 496 -681 l76 -147 -23 -41 c-22 -40 -204 -272 -277 -353 -20
-23 -141 -158 -270 -300 -551 -611 -887 -1028 -992 -1231 -34 -65 -39 -84 -39
-143 0 -57 4 -74 28 -112 61 -95 138 -133 254 -128 140 8 243 80 392 278 108
143 583 711 803 961 288 327 465 500 512 500 10 0 51 -29 92 -64 73 -63 122
-117 317 -351 120 -145 330 -351 470 -463 346 -276 733 -458 1152 -542 221
-44 339 -54 625 -54 216 0 284 4 400 22 291 45 553 132 840 276 393 199 711
436 1109 826 258 253 380 400 538 645 158 244 309 521 469 858 279 585 399
937 399 1164 0 61 -2 68 -44 121 -24 31 -59 71 -78 88 -66 61 -74 64 -190 64
l-108 0 -70 -66 c-108 -102 -198 -251 -270 -449 -180 -488 -416 -1009 -620
-1365 -134 -232 -389 -550 -641 -795 -169 -165 -267 -245 -444 -364 -280 -188
-570 -306 -875 -356 -135 -22 -401 -30 -545 -16 -369 36 -764 184 -1013 378
-355 277 -659 576 -803 789 -58 86 -129 231 -129 262 0 12 52 98 115 192 91
136 152 212 303 378 684 752 1114 1277 1234 1510 39 75 40 79 36 157 -5 90
-26 141 -80 192 -40 38 -132 83 -171 83 -42 0 -170 -45 -259 -92 -77 -39 -77
-40 -133 -139 -88 -155 -225 -357 -316 -465 -46 -55 -209 -243 -363 -419 -555
-633 -716 -805 -753 -805 -49 0 -137 107 -256 311 -51 87 -73 111 -219 247
-212 196 -315 283 -473 402 -319 240 -619 392 -858 434 -45 8 -158 20 -252 27
-146 10 -196 10 -350 -4 -327 -30 -392 -62 -722 -361 -265 -241 -553 -442
-818 -572 -276 -135 -478 -191 -725 -201 -572 -24 -992 227 -1244 741 l-65
131 -56 285 c-78 398 -152 730 -185 828 -42 125 -111 233 -215 337 -101 102
-196 159 -325 194 -122 34 -426 53 -640 39z m530 -692 c0 -311 -291 -1018
-637 -1546 -290 -442 -573 -680 -856 -719 -114 -16 -162 -14 -220 11 -238 100
-357 300 -358 601 -1 173 33 321 111 479 67 137 251 444 333 555 102 139 315
350 432 430 206 139 431 224 680 256 17 2 139 5 273 6 l242 1 0 -74z m-5001
-4343 c160 -665 280 -1257 297 -1468 3 -44 17 -141 30 -215 118 -668 176
-1458 178 -2430 1 -535 2 -524 -53 -895 -11 -71 -27 -206 -36 -300 -58 -609
-154 -1131 -295 -1606 -28 -92 -50 -174 -50 -184 0 -35 -61 -196 -119 -316
-143 -295 -449 -813 -551 -934 -83 -98 -206 -217 -280 -272 -68 -51 -180 -108
-243 -123 -69 -18 -173 -9 -232 20 -67 33 -234 200 -315 318 -244 350 -455
909 -544 1442 -66 394 -92 902 -66 1265 38 525 255 1719 389 2140 202 636 420
1230 609 1655 260 586 741 1437 1050 1860 65 89 174 220 182 220 4 0 26 -80
49 -177z"/>
</g>
</svg>
