<?xml version="1.0" standalone="no"?>
<!DOCTYPE svg PUBLIC "-//W3C//DTD SVG 20010904//EN"
 "http://www.w3.org/TR/2001/REC-SVG-20010904/DTD/svg10.dtd">
<svg version="1.0" xmlns="http://www.w3.org/2000/svg"
 width="192.000000pt" height="192.000000pt" viewBox="0 0 192.000000 192.000000"
 preserveAspectRatio="xMidYMid meet">
<metadata>
Created by potrace 1.11, written by Peter Selinger 2001-2013
</metadata>
<g transform="translate(0.000000,192.000000) scale(0.100000,-0.100000)"
fill="#000000" stroke="none">
<path d="M623 1273 c2 -13 1 -23 -3 -23 -4 0 -7 -13 -6 -30 1 -16 5 -30 10
-30 5 0 3 -6 -3 -14 -8 -9 -8 -16 -2 -20 6 -4 6 -18 1 -36 -5 -17 -6 -30 -2
-30 4 0 7 -18 7 -40 0 -22 -3 -40 -6 -40 -3 0 -6 -13 -5 -30 1 -16 5 -30 10
-30 5 0 3 -6 -3 -14 -8 -9 -8 -16 -2 -20 6 -4 6 -18 1 -36 -5 -17 -6 -30 -2
-30 10 0 9 -74 -1 -81 -4 -3 -3 -17 2 -31 5 -14 5 -31 1 -38 -5 -8 -6 -19 -2
-25 3 -5 6 -19 7 -30 0 -20 7 -20 335 -20 l335 0 0 335 0 335 -338 1 -339 0 5
-23z"/>
</g>
</svg>
