<svg viewBox="0 0 88 88.19168" xmlns="http://www.w3.org/2000/svg" xmlns:xlink="http://www.w3.org/1999/xlink"><mask id="a" height="80" maskUnits="userSpaceOnUse" width="80" x="3.34166" y="8.19168"><circle cx="43.34166" cy="48.19169" fill="#fff" r="40"/></mask><circle cx="44" cy="44" fill="#1d1d1d" r="44"/><g mask="url(#a)"><path d="m38.74166 69.23255h10.4125v11.77975h-10.4125z" fill="#d5d5d5"/><g fill="#c9c9c9"><path d="m38.74166 70.62893a17.36369 17.36369 0 0 0 10.4125 2.18407v-3.54465h-10.4125z" transform="translate(0 .00001)"/><ellipse cx="23.725" cy="50.97215" rx="5.06458" ry="5.87197"/><ellipse cx="64.13542" cy="50.97215" rx="5.06458" ry="5.87197"/></g><path d="m64.13542 39.76527c0-8.62893-6.23334-14.93056-20.1875-14.93056s-20.18751 6.30163-20.18751 14.93056-1.45208 31.36492 20.18751 31.36492 20.1875-22.73598 20.1875-31.36492z" fill="#d5d5d5" transform="translate(0 .00001)"/><ellipse cx="34.10208" cy="49.57577" fill="#2a2a2a" rx="2.19583" ry="2.43472"/><circle cx="33.14583" cy="48.50163" fill="#fff" r="1"/><path d="m30.59583 43.56057c1.02708.53707 2.69167-1.79023 6.48125.21483.70833.35805 1.09792-3.115-2.975-3.115-3.50625-.00001-4.14375 2.57793-3.50625 2.90017z" fill="#3d3d3d" transform="translate(0 .00001)"/><ellipse cx="54.04167" cy="49.57577" fill="#2a2a2a" rx="2.19583" ry="2.43472"/><circle cx="53.08542" cy="48.50163" fill="#fff" r="1"/><path d="m57.26458 43.56057c-1.02708.53707-2.69166-1.79023-6.48125.21483-.70833.35805-1.09792-3.115 2.975-3.115 3.50625-.00001 4.14375 2.57793 3.50625 2.90017z" fill="#3d3d3d" transform="translate(0 .00001)"/><path d="m43.9125 58.06148c-2.16042 0-3.47083-1.647-3.47083-.85932s.63749 2.2915 3.47083 2.2915 3.47083-1.50379 3.47083-2.2915c0-.7519-1.31041.85932-3.47083.85932z" fill="#c9c9c9" transform="translate(0 .00001)"/><path d="m43.9125 65.32983c-.74375 0-1.20417-.57287-1.20417-.28644s.2125.78771 1.20417.78771 1.20416-.50127 1.20416-.78771-.42499.28644-1.20416.28644z" fill="#c9c9c9" transform="translate(0 .00001)"/><path d="m43.9125 63.32477c-3.43542 0-5.48959-1.39639-5.48959-1.03834s.99167 1.75443 5.48959 1.75443 5.48958-1.39638 5.48958-1.75443-2.05416 1.03834-5.48958 1.03834z" fill="#acacac" transform="translate(0 .00001)"/><path d="m43.84163 74.47739c-12.07141 0-25.5 8.15444-25.5 13.71429h51c.03568-5.55985-13.39288-13.71429-25.5-13.71429z" fill="#353535" transform="translate(0 .00001)"/><path d="m44.5532 74.47739a28.52759 28.52759 0 0 0 -7.51153 1.07641 9.6725 9.6725 0 0 0 7.51153 4.06644c4.43077 0 7.33846-3.46843 7.78846-3.9867a27.53506 27.53506 0 0 0 -7.78846-1.15615z" fill="#8c8c8c" transform="translate(0 .00001)"/><path d="m38.74166 73.84529a6.03925 6.03925 0 0 0 5.1 2.34639 6.03926 6.03926 0 0 0 5.1-2.34639s-5.30816-2.43492-10.2 0z" fill="#d5d5d5" transform="translate(0 .00001)"/><path d="m60.64327 22.80417s-7.40876-9.3283-22.78544-5.82585c-15.34173 3.53712-16.49498 12.72668-16.04067 21.63887s1.67746 14.14849 3.14523 13.52429c1.46778-.65888.69894-6.55408.83873-7.90651s1.53767-7.52506 10.90346-6.58876a39.02754 39.02754 0 0 0 17.22886-2.46211s3.18018 3.98793 5.24205 4.75084c4.15869 1.52581 2.79576 11.68637 4.43827 11.68637s9.68032-23.44211-2.97049-28.81714z" fill="#3d3d3d" transform="translate(0 .00001)"/></g></svg>